<svg xmlns="http://www.w3.org/2000/svg" width="864" height="1850" viewBox="0 0 864 1850" role="img" aria-labelledby="title-0005 desc-0005"><title id="title-0005">Lesson 0005 overview: ONNX and TensorRT</title><desc id="desc-0005">A 12-station hand-drawn technical overview sheet. Stations read from 1 to 12, left to right and top to bottom.</desc><rect x="0" y="0" width="864" height="1850" fill="#000916" /><path d="M0 0 V1850" stroke="#09325d" stroke-width="1" opacity="0.18" /><path d="M48 0 V1850" stroke="#09325d" stroke-width="1" opacity="0.18" /><path d="M96 0 V1850" stroke="#09325d" stroke-width="1" opacity="0.18" /><path d="M144 0 V1850" stroke="#09325d" stroke-width="1" opacity="0.18" /><path d="M192 0 V1850" stroke="#09325d" stroke-width="1" opacity="0.18" /><path d="M240 0 V1850" stroke="#09325d" stroke-width="1" opacity="0.18" /><path d="M288 0 V1850" stroke="#09325d" stroke-width="1" opacity="0.18" /><path d="M336 0 V1850" stroke="#09325d" stroke-width="1" opacity="0.18" /><path d="M384 0 V1850" stroke="#09325d" stroke-width="1" opacity="0.18" /><path d="M432 0 V1850" stroke="#09325d" stroke-width="1" opacity="0.18" /><path d="M480 0 V1850" stroke="#09325d" stroke-width="1" opacity="0.18" /><path d="M528 0 V1850" stroke="#09325d" stroke-width="1" opacity="0.18" /><path d="M576 0 V1850" stroke="#09325d" stroke-width="1" opacity="0.18" /><path d="M624 0 V1850" stroke="#09325d" stroke-width="1" opacity="0.18" /><path d="M672 0 V1850" stroke="#09325d" stroke-width="1" opacity="0.18" /><path d="M720 0 V1850" stroke="#09325d" stroke-width="1" opacity="0.18" /><path d="M768 0 V1850" stroke="#09325d" stroke-width="1" opacity="0.18" /><path d="M816 0 V1850" stroke="#09325d" stroke-width="1" opacity="0.18" /><path d="M864 0 V1850" stroke="#09325d" stroke-width="1" opacity="0.18" /><path d="M0 0 H864" stroke="#09325d" stroke-width="1" opacity="0.18" /><path d="M0 48 H864" stroke="#09325d" stroke-width="1" opacity="0.18" /><path d="M0 96 H864" stroke="#09325d" stroke-width="1" opacity="0.18" /><path d="M0 144 H864" stroke="#09325d" stroke-width="1" opacity="0.18" /><path d="M0 192 H864" stroke="#09325d" stroke-width="1" opacity="0.18" /><path d="M0 240 H864" stroke="#09325d" stroke-width="1" opacity="0.18" /><path d="M0 288 H864" stroke="#09325d" stroke-width="1" opacity="0.18" /><path d="M0 336 H864" stroke="#09325d" stroke-width="1" opacity="0.18" /><path d="M0 384 H864" stroke="#09325d" stroke-width="1" opacity="0.18" /><path d="M0 432 H864" stroke="#09325d" stroke-width="1" opacity="0.18" /><path d="M0 480 H864" stroke="#09325d" stroke-width="1" opacity="0.18" /><path d="M0 528 H864" stroke="#09325d" stroke-width="1" opacity="0.18" /><path d="M0 576 H864" stroke="#09325d" stroke-width="1" opacity="0.18" /><path d="M0 624 H864" stroke="#09325d" stroke-width="1" opacity="0.18" /><path d="M0 672 H864" stroke="#09325d" stroke-width="1" opacity="0.18" /><path d="M0 720 H864" stroke="#09325d" stroke-width="1" opacity="0.18" /><path d="M0 768 H864" stroke="#09325d" stroke-width="1" opacity="0.18" /><path d="M0 816 H864" stroke="#09325d" stroke-width="1" opacity="0.18" /><path d="M0 864 H864" stroke="#09325d" stroke-width="1" opacity="0.18" /><path d="M0 912 H864" stroke="#09325d" stroke-width="1" opacity="0.18" /><path d="M0 960 H864" stroke="#09325d" stroke-width="1" opacity="0.18" /><path d="M0 1008 H864" stroke="#09325d" stroke-width="1" opacity="0.18" /><path d="M0 1056 H864" stroke="#09325d" stroke-width="1" opacity="0.18" /><path d="M0 1104 H864" stroke="#09325d" stroke-width="1" opacity="0.18" /><path d="M0 1152 H864" stroke="#09325d" stroke-width="1" opacity="0.18" /><path d="M0 1200 H864" stroke="#09325d" stroke-width="1" opacity="0.18" /><path d="M0 1248 H864" stroke="#09325d" stroke-width="1" opacity="0.18" /><path d="M0 1296 H864" stroke="#09325d" stroke-width="1" opacity="0.18" /><path d="M0 1344 H864" stroke="#09325d" stroke-width="1" opacity="0.18" /><path d="M0 1392 H864" stroke="#09325d" stroke-width="1" opacity="0.18" /><path d="M0 1440 H864" stroke="#09325d" stroke-width="1" opacity="0.18" /><path d="M0 1488 H864" stroke="#09325d" stroke-width="1" opacity="0.18" /><path d="M0 1536 H864" stroke="#09325d" stroke-width="1" opacity="0.18" /><path d="M0 1584 H864" stroke="#09325d" stroke-width="1" opacity="0.18" /><path d="M0 1632 H864" stroke="#09325d" stroke-width="1" opacity="0.18" /><path d="M0 1680 H864" stroke="#09325d" stroke-width="1" opacity="0.18" /><path d="M0 1728 H864" stroke="#09325d" stroke-width="1" opacity="0.18" /><path d="M0 1776 H864" stroke="#09325d" stroke-width="1" opacity="0.18" /><path d="M0 1824 H864" stroke="#09325d" stroke-width="1" opacity="0.18" /><rect x="32" y="28" width="800" height="154" fill="#041d39" stroke="#02adf8" stroke-width="3" /><text x="55" y="66" font-family="Poppins, Inter, Arial, sans-serif" font-size="14px" font-weight="700" fill="#02adf8" text-anchor="start">LESSON 0005 · OVERVIEW SHEET</text><text x="55" y="111" font-family="Poppins, Inter, Arial, sans-serif" font-size="31px" font-weight="700" fill="#dfe9f3" text-anchor="start">ONNX and TensorRT</text><text x="55" y="145" font-family="Poppins, Inter, Arial, sans-serif" font-size="12px" font-weight="600" fill="#b8efff" text-anchor="start">ONE FUNCTION · THREE ARTIFACT CONTAINERS · VERIFIED TRANSFER</text><rect x="32" y="202" width="800" height="32" fill="#09325d" stroke="#cadaeb" stroke-width="1" /><text x="50" y="224" font-family="Poppins, Inter, Arial, sans-serif" font-size="10px" font-weight="700" fill="#dfe9f3" text-anchor="start">READING ORDER</text><text x="790" y="224" font-family="Poppins, Inter, Arial, sans-serif" font-size="12px" font-weight="700" fill="#b8efff" text-anchor="end">1 → 2 → 3 → … → 12</text><rect x="35" y="256" width="386" height="220" fill="none" stroke="#02adf8" stroke-width="2" opacity="0.28" transform="rotate(-0.3 225.0 362.0)" /><rect x="32" y="252" width="386" height="220" rx="4" fill="#041d39" stroke="#cadaeb" stroke-width="2" /><circle cx="59" cy="280" r="17" fill="#02adf8" stroke="#b8efff" stroke-width="2" /><text x="59" y="286" font-family="Poppins, Inter, Arial, sans-serif" font-size="15px" font-weight="700" fill="#000916" text-anchor="middle">1</text><text x="87" y="284" font-family="Poppins, Inter, Arial, sans-serif" font-size="13px" font-weight="700" fill="#dfe9f3" text-anchor="start">ONE LEARNED FUNCTION</text><rect x="50" y="340" width="27" height="32" fill="#041d39" stroke="#02adf8" stroke-width="2" rx="3" /><text x="63.5" y="360" font-family="Poppins, Inter, Arial, sans-serif" font-size="15px" font-weight="700" fill="#b8efff" text-anchor="middle">A</text><path d="M78 356 L89 356" fill="none" stroke="#02adf8" stroke-width="2" stroke-linecap="round" /><rect x="91" y="340" width="27" height="32" fill="#041d39" stroke="#02adf8" stroke-width="2" rx="3" /><text x="104.5" y="360" font-family="Poppins, Inter, Arial, sans-serif" font-size="15px" font-weight="700" fill="#b8efff" text-anchor="middle">B</text><path d="M119 356 L130 356" fill="none" stroke="#02adf8" stroke-width="2" stroke-linecap="round" /><rect x="132" y="340" width="27" height="32" fill="#041d39" stroke="#02adf8" stroke-width="2" rx="3" /><text x="145.5" y="360" font-family="Poppins, Inter, Arial, sans-serif" font-size="15px" font-weight="700" fill="#b8efff" text-anchor="middle">C</text><text x="198" y="334" font-family="Poppins, Inter, Arial, sans-serif" font-size="12px" font-weight="400" fill="#cadaeb" text-anchor="start">The learned detector stays</text><text x="198" y="354" font-family="Poppins, Inter, Arial, sans-serif" font-size="12px" font-weight="400" fill="#cadaeb" text-anchor="start">conceptually the same while its</text><text x="198" y="374" font-family="Poppins, Inter, Arial, sans-serif" font-size="12px" font-weight="400" fill="#cadaeb" text-anchor="start">representation and runtime change.</text><rect x="449" y="256" width="386" height="220" fill="none" stroke="#02adf8" stroke-width="2" opacity="0.28" transform="rotate(0.3 639.0 362.0)" /><rect x="446" y="252" width="386" height="220" rx="4" fill="#041d39" stroke="#cadaeb" stroke-width="2" /><circle cx="473" cy="280" r="17" fill="#02adf8" stroke="#b8efff" stroke-width="2" /><text x="473" y="286" font-family="Poppins, Inter, Arial, sans-serif" font-size="15px" font-weight="700" fill="#000916" text-anchor="middle">2</text><text x="501" y="284" font-family="Poppins, Inter, Arial, sans-serif" font-size="13px" font-weight="700" fill="#dfe9f3" text-anchor="start">PYTORCH CHECKPOINT</text><rect x="481" y="320" width="68" height="86" fill="#041d39" stroke="#cadaeb" stroke-width="2" rx="2" /><path d="M531 320 L549 338" fill="none" stroke="#cadaeb" stroke-width="2" stroke-linecap="round" /><path d="M531 320 L531 338" fill="none" stroke="#cadaeb" stroke-width="2" stroke-linecap="round" /><path d="M494 384 L536 384" fill="none" stroke="#09325d" stroke-width="2" stroke-linecap="round" /><path d="M494 394 L526 394" fill="none" stroke="#09325d" stroke-width="2" stroke-linecap="round" /><text x="612" y="334" font-family="Poppins, Inter, Arial, sans-serif" font-size="12px" font-weight="400" fill="#cadaeb" text-anchor="start">best.pt keeps weights and</text><text x="612" y="354" font-family="Poppins, Inter, Arial, sans-serif" font-size="12px" font-weight="400" fill="#cadaeb" text-anchor="start">training-framework metadata for</text><text x="612" y="374" font-family="Poppins, Inter, Arial, sans-serif" font-size="12px" font-weight="400" fill="#cadaeb" text-anchor="start">loading and further training.</text><rect x="35" y="492" width="386" height="220" fill="none" stroke="#02adf8" stroke-width="2" opacity="0.28" transform="rotate(-0.3 225.0 598.0)" /><rect x="32" y="488" width="386" height="220" rx="4" fill="#041d39" stroke="#cadaeb" stroke-width="2" /><circle cx="59" cy="516" r="17" fill="#02adf8" stroke="#b8efff" stroke-width="2" /><text x="59" y="522" font-family="Poppins, Inter, Arial, sans-serif" font-size="15px" font-weight="700" fill="#000916" text-anchor="middle">3</text><text x="87" y="520" font-family="Poppins, Inter, Arial, sans-serif" font-size="13px" font-weight="700" fill="#dfe9f3" text-anchor="start">EXPORT BOUNDARY</text><rect x="50" y="577" width="31" height="31" fill="#041d39" stroke="#cadaeb" stroke-width="2" rx="2" /><rect x="131" y="577" width="31" height="31" fill="#041d39" stroke="#02adf8" stroke-width="2" rx="2" /><path d="M85 592 L126 592" fill="none" stroke="#02adf8" stroke-width="3" stroke-linecap="round" /><path d="M118 586 L126 592" fill="none" stroke="#02adf8" stroke-width="3" stroke-linecap="round" /><path d="M118 598 L126 592" fill="none" stroke="#02adf8" stroke-width="3" stroke-linecap="round" /><text x="198" y="570" font-family="Poppins, Inter, Arial, sans-serif" font-size="12px" font-weight="400" fill="#cadaeb" text-anchor="start">The exporter translates the model into</text><text x="198" y="590" font-family="Poppins, Inter, Arial, sans-serif" font-size="12px" font-weight="400" fill="#cadaeb" text-anchor="start">a portable computation graph, not a</text><text x="198" y="610" font-family="Poppins, Inter, Arial, sans-serif" font-size="12px" font-weight="400" fill="#cadaeb" text-anchor="start">new dataset.</text><rect x="449" y="492" width="386" height="220" fill="none" stroke="#02adf8" stroke-width="2" opacity="0.28" transform="rotate(0.3 639.0 598.0)" /><rect x="446" y="488" width="386" height="220" rx="4" fill="#041d39" stroke="#cadaeb" stroke-width="2" /><circle cx="473" cy="516" r="17" fill="#02adf8" stroke="#b8efff" stroke-width="2" /><text x="473" y="522" font-family="Poppins, Inter, Arial, sans-serif" font-size="15px" font-weight="700" fill="#000916" text-anchor="middle">4</text><text x="501" y="520" font-family="Poppins, Inter, Arial, sans-serif" font-size="13px" font-weight="700" fill="#dfe9f3" text-anchor="start">ONNX GRAPH</text><rect x="481" y="556" width="68" height="86" fill="#041d39" stroke="#cadaeb" stroke-width="2" rx="2" /><path d="M531 556 L549 574" fill="none" stroke="#cadaeb" stroke-width="2" stroke-linecap="round" /><path d="M531 556 L531 574" fill="none" stroke="#cadaeb" stroke-width="2" stroke-linecap="round" /><path d="M494 620 L536 620" fill="none" stroke="#09325d" stroke-width="2" stroke-linecap="round" /><path d="M494 630 L526 630" fill="none" stroke="#09325d" stroke-width="2" stroke-linecap="round" /><text x="612" y="570" font-family="Poppins, Inter, Arial, sans-serif" font-size="12px" font-weight="400" fill="#cadaeb" text-anchor="start">best.onnx stores typed operators,</text><text x="612" y="590" font-family="Poppins, Inter, Arial, sans-serif" font-size="12px" font-weight="400" fill="#cadaeb" text-anchor="start">tensors, and metadata for another</text><text x="612" y="610" font-family="Poppins, Inter, Arial, sans-serif" font-size="12px" font-weight="400" fill="#cadaeb" text-anchor="start">runtime.</text><rect x="35" y="728" width="386" height="220" fill="none" stroke="#02adf8" stroke-width="2" opacity="0.28" transform="rotate(-0.3 225.0 834.0)" /><rect x="32" y="724" width="386" height="220" rx="4" fill="#041d39" stroke="#cadaeb" stroke-width="2" /><circle cx="59" cy="752" r="17" fill="#02adf8" stroke="#b8efff" stroke-width="2" /><text x="59" y="758" font-family="Poppins, Inter, Arial, sans-serif" font-size="15px" font-weight="700" fill="#000916" text-anchor="middle">5</text><text x="87" y="756" font-family="Poppins, Inter, Arial, sans-serif" font-size="13px" font-weight="700" fill="#dfe9f3" text-anchor="start">STATIC CONTRACT</text><rect x="54" y="808" width="45" height="45" fill="#041d39" stroke="#cadaeb" stroke-width="2" /><rect x="112" y="808" width="45" height="45" fill="#041d39" stroke="#02adf8" stroke-width="2" /><text x="198" y="806" font-family="Poppins, Inter, Arial, sans-serif" font-size="12px" font-weight="400" fill="#cadaeb" text-anchor="start">This project expects float32</text><text x="198" y="826" font-family="Poppins, Inter, Arial, sans-serif" font-size="12px" font-weight="400" fill="#cadaeb" text-anchor="start">[1,3,640,640] in and [1,7,8400] out.</text><rect x="449" y="728" width="386" height="220" fill="none" stroke="#02adf8" stroke-width="2" opacity="0.28" transform="rotate(0.3 639.0 834.0)" /><rect x="446" y="724" width="386" height="220" rx="4" fill="#041d39" stroke="#cadaeb" stroke-width="2" /><circle cx="473" cy="752" r="17" fill="#02adf8" stroke="#b8efff" stroke-width="2" /><text x="473" y="758" font-family="Poppins, Inter, Arial, sans-serif" font-size="15px" font-weight="700" fill="#000916" text-anchor="middle">6</text><text x="501" y="756" font-family="Poppins, Inter, Arial, sans-serif" font-size="13px" font-weight="700" fill="#dfe9f3" text-anchor="start">CHECKER</text><rect x="466" y="800" width="104" height="70" fill="#041d39" stroke="#cadaeb" stroke-width="2" rx="2" /><text x="612" y="806" font-family="Poppins, Inter, Arial, sans-serif" font-size="12px" font-weight="400" fill="#cadaeb" text-anchor="start">onnx.checker.check_model verifies</text><text x="612" y="826" font-family="Poppins, Inter, Arial, sans-serif" font-size="12px" font-weight="400" fill="#cadaeb" text-anchor="start">structural consistency; it does not</text><text x="612" y="846" font-family="Poppins, Inter, Arial, sans-serif" font-size="12px" font-weight="400" fill="#cadaeb" text-anchor="start">prove robot accuracy.</text><rect x="35" y="964" width="386" height="220" fill="none" stroke="#02adf8" stroke-width="2" opacity="0.28" transform="rotate(-0.3 225.0 1070.0)" /><rect x="32" y="960" width="386" height="220" rx="4" fill="#041d39" stroke="#cadaeb" stroke-width="2" /><circle cx="59" cy="988" r="17" fill="#02adf8" stroke="#b8efff" stroke-width="2" /><text x="59" y="994" font-family="Poppins, Inter, Arial, sans-serif" font-size="15px" font-weight="700" fill="#000916" text-anchor="middle">7</text><text x="87" y="992" font-family="Poppins, Inter, Arial, sans-serif" font-size="13px" font-weight="700" fill="#dfe9f3" text-anchor="start">ORT SMOKE</text><rect x="52" y="1034" width="105" height="80" fill="#041d39" stroke="#cadaeb" stroke-width="2" rx="2" /><path d="M75 1054 L138 1054" fill="none" stroke="#b8efff" stroke-width="2" stroke-linecap="round" /><path d="M60 1074 L126 1074" fill="none" stroke="#09325d" stroke-width="2" stroke-linecap="round" /><path d="M60 1090 L112 1090" fill="none" stroke="#09325d" stroke-width="2" stroke-linecap="round" /><text x="198" y="1042" font-family="Poppins, Inter, Arial, sans-serif" font-size="12px" font-weight="400" fill="#cadaeb" text-anchor="start">m3_smoke_inference.py runs a CPU ONNX</text><text x="198" y="1062" font-family="Poppins, Inter, Arial, sans-serif" font-size="12px" font-weight="400" fill="#cadaeb" text-anchor="start">check with decode, thresholds, and</text><text x="198" y="1082" font-family="Poppins, Inter, Arial, sans-serif" font-size="12px" font-weight="400" fill="#cadaeb" text-anchor="start">NMS.</text><rect x="449" y="964" width="386" height="220" fill="none" stroke="#02adf8" stroke-width="2" opacity="0.28" transform="rotate(0.3 639.0 1070.0)" /><rect x="446" y="960" width="386" height="220" rx="4" fill="#041d39" stroke="#cadaeb" stroke-width="2" /><circle cx="473" cy="988" r="17" fill="#02adf8" stroke="#b8efff" stroke-width="2" /><text x="473" y="994" font-family="Poppins, Inter, Arial, sans-serif" font-size="15px" font-weight="700" fill="#000916" text-anchor="middle">8</text><text x="501" y="992" font-family="Poppins, Inter, Arial, sans-serif" font-size="13px" font-weight="700" fill="#dfe9f3" text-anchor="start">TENSORRT BUILDER</text><rect x="481" y="1028" width="68" height="86" fill="#041d39" stroke="#cadaeb" stroke-width="2" rx="2" /><path d="M531 1028 L549 1046" fill="none" stroke="#cadaeb" stroke-width="2" stroke-linecap="round" /><path d="M531 1028 L531 1046" fill="none" stroke="#cadaeb" stroke-width="2" stroke-linecap="round" /><path d="M494 1092 L536 1092" fill="none" stroke="#09325d" stroke-width="2" stroke-linecap="round" /><path d="M494 1102 L526 1102" fill="none" stroke="#09325d" stroke-width="2" stroke-linecap="round" /><text x="612" y="1042" font-family="Poppins, Inter, Arial, sans-serif" font-size="12px" font-weight="400" fill="#cadaeb" text-anchor="start">trtexec optimizes the ONNX graph for</text><text x="612" y="1062" font-family="Poppins, Inter, Arial, sans-serif" font-size="12px" font-weight="400" fill="#cadaeb" text-anchor="start">the Jetson GPU and serializes an</text><text x="612" y="1082" font-family="Poppins, Inter, Arial, sans-serif" font-size="12px" font-weight="400" fill="#cadaeb" text-anchor="start">engine.</text><rect x="35" y="1200" width="386" height="220" fill="none" stroke="#02adf8" stroke-width="2" opacity="0.28" transform="rotate(-0.3 225.0 1306.0)" /><rect x="32" y="1196" width="386" height="220" rx="4" fill="#041d39" stroke="#cadaeb" stroke-width="2" /><circle cx="59" cy="1224" r="17" fill="#02adf8" stroke="#b8efff" stroke-width="2" /><text x="59" y="1230" font-family="Poppins, Inter, Arial, sans-serif" font-size="15px" font-weight="700" fill="#000916" text-anchor="middle">9</text><text x="87" y="1228" font-family="Poppins, Inter, Arial, sans-serif" font-size="13px" font-weight="700" fill="#dfe9f3" text-anchor="start">FP16 CHOICE</text><rect x="54" y="1280" width="45" height="45" fill="#041d39" stroke="#cadaeb" stroke-width="2" /><rect x="112" y="1280" width="45" height="45" fill="#041d39" stroke="#02adf8" stroke-width="2" /><text x="198" y="1278" font-family="Poppins, Inter, Arial, sans-serif" font-size="12px" font-weight="400" fill="#cadaeb" text-anchor="start">--fp16 enables lower-precision</text><text x="198" y="1298" font-family="Poppins, Inter, Arial, sans-serif" font-size="12px" font-weight="400" fill="#cadaeb" text-anchor="start">execution for the Orin deployment</text><text x="198" y="1318" font-family="Poppins, Inter, Arial, sans-serif" font-size="12px" font-weight="400" fill="#cadaeb" text-anchor="start">target.</text><rect x="449" y="1200" width="386" height="220" fill="none" stroke="#02adf8" stroke-width="2" opacity="0.28" transform="rotate(0.3 639.0 1306.0)" /><rect x="446" y="1196" width="386" height="220" rx="4" fill="#041d39" stroke="#cadaeb" stroke-width="2" /><circle cx="473" cy="1224" r="17" fill="#02adf8" stroke="#b8efff" stroke-width="2" /><text x="473" y="1230" font-family="Poppins, Inter, Arial, sans-serif" font-size="15px" font-weight="700" fill="#000916" text-anchor="middle">10</text><text x="501" y="1228" font-family="Poppins, Inter, Arial, sans-serif" font-size="13px" font-weight="700" fill="#dfe9f3" text-anchor="start">ENGINE SPECIFICITY</text><rect x="491" y="1296" width="55" height="42" fill="#041d39" stroke="#02adf8" stroke-width="2" rx="3" /><circle cx="519" cy="1315" r="5" fill="#b8efff" stroke="#02adf8" stroke-width="1" /><text x="612" y="1278" font-family="Poppins, Inter, Arial, sans-serif" font-size="12px" font-weight="400" fill="#cadaeb" text-anchor="start">best.engine depends on device/runtime</text><text x="612" y="1298" font-family="Poppins, Inter, Arial, sans-serif" font-size="12px" font-weight="400" fill="#cadaeb" text-anchor="start">compatibility; it is not a universal</text><text x="612" y="1318" font-family="Poppins, Inter, Arial, sans-serif" font-size="12px" font-weight="400" fill="#cadaeb" text-anchor="start">weight file.</text><rect x="35" y="1436" width="386" height="220" fill="none" stroke="#02adf8" stroke-width="2" opacity="0.28" transform="rotate(-0.3 225.0 1542.0)" /><rect x="32" y="1432" width="386" height="220" rx="4" fill="#041d39" stroke="#cadaeb" stroke-width="2" /><circle cx="59" cy="1460" r="17" fill="#02adf8" stroke="#b8efff" stroke-width="2" /><text x="59" y="1466" font-family="Poppins, Inter, Arial, sans-serif" font-size="15px" font-weight="700" fill="#000916" text-anchor="middle">11</text><text x="87" y="1464" font-family="Poppins, Inter, Arial, sans-serif" font-size="13px" font-weight="700" fill="#dfe9f3" text-anchor="start">NODE RUNTIME</text><circle cx="59" cy="1516" r="6" fill="#041d39" stroke="#cadaeb" stroke-width="2" /><circle cx="59" cy="1544" r="6" fill="#041d39" stroke="#cadaeb" stroke-width="2" /><circle cx="59" cy="1572" r="6" fill="#041d39" stroke="#cadaeb" stroke-width="2" /><circle cx="100" cy="1516" r="6" fill="#041d39" stroke="#02adf8" stroke-width="2" /><circle cx="100" cy="1544" r="6" fill="#041d39" stroke="#02adf8" stroke-width="2" /><circle cx="100" cy="1572" r="6" fill="#041d39" stroke="#02adf8" stroke-width="2" /><circle cx="141" cy="1516" r="6" fill="#041d39" stroke="#cadaeb" stroke-width="2" /><circle cx="141" cy="1544" r="6" fill="#041d39" stroke="#cadaeb" stroke-width="2" /><circle cx="141" cy="1572" r="6" fill="#041d39" stroke="#cadaeb" stroke-width="2" /><path d="M78 1516 L100 1516" fill="none" stroke="#09325d" stroke-width="1" stroke-linecap="round" /><path d="M78 1516 L100 1544" fill="none" stroke="#09325d" stroke-width="1" stroke-linecap="round" /><path d="M78 1516 L100 1572" fill="none" stroke="#09325d" stroke-width="1" stroke-linecap="round" /><path d="M78 1544 L100 1516" fill="none" stroke="#09325d" stroke-width="1" stroke-linecap="round" /><path d="M78 1544 L100 1544" fill="none" stroke="#09325d" stroke-width="1" stroke-linecap="round" /><path d="M78 1544 L100 1572" fill="none" stroke="#09325d" stroke-width="1" stroke-linecap="round" /><path d="M78 1572 L100 1516" fill="none" stroke="#09325d" stroke-width="1" stroke-linecap="round" /><path d="M78 1572 L100 1544" fill="none" stroke="#09325d" stroke-width="1" stroke-linecap="round" /><path d="M78 1572 L100 1572" fill="none" stroke="#09325d" stroke-width="1" stroke-linecap="round" /><path d="M106 1516 L128 1516" fill="none" stroke="#09325d" stroke-width="1" stroke-linecap="round" /><path d="M106 1516 L128 1544" fill="none" stroke="#09325d" stroke-width="1" stroke-linecap="round" /><path d="M106 1516 L128 1572" fill="none" stroke="#09325d" stroke-width="1" stroke-linecap="round" /><path d="M106 1544 L128 1516" fill="none" stroke="#09325d" stroke-width="1" stroke-linecap="round" /><path d="M106 1544 L128 1544" fill="none" stroke="#09325d" stroke-width="1" stroke-linecap="round" /><path d="M106 1544 L128 1572" fill="none" stroke="#09325d" stroke-width="1" stroke-linecap="round" /><path d="M106 1572 L128 1516" fill="none" stroke="#09325d" stroke-width="1" stroke-linecap="round" /><path d="M106 1572 L128 1544" fill="none" stroke="#09325d" stroke-width="1" stroke-linecap="round" /><path d="M106 1572 L128 1572" fill="none" stroke="#09325d" stroke-width="1" stroke-linecap="round" /><text x="198" y="1514" font-family="Poppins, Inter, Arial, sans-serif" font-size="12px" font-weight="400" fill="#cadaeb" text-anchor="start">_try_load_engine allocates bindings;</text><text x="198" y="1534" font-family="Poppins, Inter, Arial, sans-serif" font-size="12px" font-weight="400" fill="#cadaeb" text-anchor="start">_infer copies, executes, synchronizes,</text><text x="198" y="1554" font-family="Poppins, Inter, Arial, sans-serif" font-size="12px" font-weight="400" fill="#cadaeb" text-anchor="start">and decodes.</text><rect x="449" y="1436" width="386" height="220" fill="none" stroke="#02adf8" stroke-width="2" opacity="0.28" transform="rotate(0.3 639.0 1542.0)" /><rect x="446" y="1432" width="386" height="220" rx="4" fill="#041d39" stroke="#cadaeb" stroke-width="2" /><circle cx="473" cy="1460" r="17" fill="#02adf8" stroke="#b8efff" stroke-width="2" /><text x="473" y="1466" font-family="Poppins, Inter, Arial, sans-serif" font-size="15px" font-weight="700" fill="#000916" text-anchor="middle">12</text><text x="501" y="1464" font-family="Poppins, Inter, Arial, sans-serif" font-size="13px" font-weight="700" fill="#dfe9f3" text-anchor="start">TRANSFER PROOF</text><rect x="464" y="1520" width="27" height="32" fill="#041d39" stroke="#02adf8" stroke-width="2" rx="3" /><text x="477.5" y="1540" font-family="Poppins, Inter, Arial, sans-serif" font-size="15px" font-weight="700" fill="#b8efff" text-anchor="middle">A</text><path d="M492 1536 L503 1536" fill="none" stroke="#02adf8" stroke-width="2" stroke-linecap="round" /><rect x="505" y="1520" width="27" height="32" fill="#041d39" stroke="#02adf8" stroke-width="2" rx="3" /><text x="518.5" y="1540" font-family="Poppins, Inter, Arial, sans-serif" font-size="15px" font-weight="700" fill="#b8efff" text-anchor="middle">B</text><path d="M533 1536 L544 1536" fill="none" stroke="#02adf8" stroke-width="2" stroke-linecap="round" /><rect x="546" y="1520" width="27" height="32" fill="#041d39" stroke="#02adf8" stroke-width="2" rx="3" /><text x="559.5" y="1540" font-family="Poppins, Inter, Arial, sans-serif" font-size="15px" font-weight="700" fill="#b8efff" text-anchor="middle">C</text><text x="612" y="1514" font-family="Poppins, Inter, Arial, sans-serif" font-size="12px" font-weight="400" fill="#cadaeb" text-anchor="start">Validate each boundary: export, check,</text><text x="612" y="1534" font-family="Poppins, Inter, Arial, sans-serif" font-size="12px" font-weight="400" fill="#cadaeb" text-anchor="start">smoke, build, load, and compare</text><text x="612" y="1554" font-family="Poppins, Inter, Arial, sans-serif" font-size="12px" font-weight="400" fill="#cadaeb" text-anchor="start">measured behavior.</text><rect x="32" y="1693" width="800" height="90" fill="#041d39" stroke="#02adf8" stroke-width="2" /><text x="52" y="1721" font-family="Poppins, Inter, Arial, sans-serif" font-size="11px" font-weight="700" fill="#02adf8" text-anchor="start">PROJECT ANCHOR</text><text x="52" y="1747" font-family="Poppins, Inter, Arial, sans-serif" font-size="12px" font-weight="500" fill="#dfe9f3" text-anchor="start">Anchors: models/README.md · cube_detection_node.py:_try_load_engine/_infer</text><text x="832" y="1775" font-family="Poppins, Inter, Arial, sans-serif" font-size="10px" font-weight="500" fill="#9bb1c7" text-anchor="end">EXPLANATORY MAP · NOT A MEASUREMENT</text></svg>