<svg xmlns="http://www.w3.org/2000/svg" width="864" height="1850" viewBox="0 0 864 1850" role="img" aria-labelledby="title-0007 desc-0007"><title id="title-0007">Lesson 0007 overview: Depth and geometry filtering</title><desc id="desc-0007">A 12-station hand-drawn technical overview sheet. Stations read from 1 to 12, left to right and top to bottom.</desc><rect x="0" y="0" width="864" height="1850" fill="#000916" /><path d="M0 0 V1850" stroke="#09325d" stroke-width="1" opacity="0.18" /><path d="M48 0 V1850" stroke="#09325d" stroke-width="1" opacity="0.18" /><path d="M96 0 V1850" stroke="#09325d" stroke-width="1" opacity="0.18" /><path d="M144 0 V1850" stroke="#09325d" stroke-width="1" opacity="0.18" /><path d="M192 0 V1850" stroke="#09325d" stroke-width="1" opacity="0.18" /><path d="M240 0 V1850" stroke="#09325d" stroke-width="1" opacity="0.18" /><path d="M288 0 V1850" stroke="#09325d" stroke-width="1" opacity="0.18" /><path d="M336 0 V1850" stroke="#09325d" stroke-width="1" opacity="0.18" /><path d="M384 0 V1850" stroke="#09325d" stroke-width="1" opacity="0.18" /><path d="M432 0 V1850" stroke="#09325d" stroke-width="1" opacity="0.18" /><path d="M480 0 V1850" stroke="#09325d" stroke-width="1" opacity="0.18" /><path d="M528 0 V1850" stroke="#09325d" stroke-width="1" opacity="0.18" /><path d="M576 0 V1850" stroke="#09325d" stroke-width="1" opacity="0.18" /><path d="M624 0 V1850" stroke="#09325d" stroke-width="1" opacity="0.18" /><path d="M672 0 V1850" stroke="#09325d" stroke-width="1" opacity="0.18" /><path d="M720 0 V1850" stroke="#09325d" stroke-width="1" opacity="0.18" /><path d="M768 0 V1850" stroke="#09325d" stroke-width="1" opacity="0.18" /><path d="M816 0 V1850" stroke="#09325d" stroke-width="1" opacity="0.18" /><path d="M864 0 V1850" stroke="#09325d" stroke-width="1" opacity="0.18" /><path d="M0 0 H864" stroke="#09325d" stroke-width="1" opacity="0.18" /><path d="M0 48 H864" stroke="#09325d" stroke-width="1" opacity="0.18" /><path d="M0 96 H864" stroke="#09325d" stroke-width="1" opacity="0.18" /><path d="M0 144 H864" stroke="#09325d" stroke-width="1" opacity="0.18" /><path d="M0 192 H864" stroke="#09325d" stroke-width="1" opacity="0.18" /><path d="M0 240 H864" stroke="#09325d" stroke-width="1" opacity="0.18" /><path d="M0 288 H864" stroke="#09325d" stroke-width="1" opacity="0.18" /><path d="M0 336 H864" stroke="#09325d" stroke-width="1" opacity="0.18" /><path d="M0 384 H864" stroke="#09325d" stroke-width="1" opacity="0.18" /><path d="M0 432 H864" stroke="#09325d" stroke-width="1" opacity="0.18" /><path d="M0 480 H864" stroke="#09325d" stroke-width="1" opacity="0.18" /><path d="M0 528 H864" stroke="#09325d" stroke-width="1" opacity="0.18" /><path d="M0 576 H864" stroke="#09325d" stroke-width="1" opacity="0.18" /><path d="M0 624 H864" stroke="#09325d" stroke-width="1" opacity="0.18" /><path d="M0 672 H864" stroke="#09325d" stroke-width="1" opacity="0.18" /><path d="M0 720 H864" stroke="#09325d" stroke-width="1" opacity="0.18" /><path d="M0 768 H864" stroke="#09325d" stroke-width="1" opacity="0.18" /><path d="M0 816 H864" stroke="#09325d" stroke-width="1" opacity="0.18" /><path d="M0 864 H864" stroke="#09325d" stroke-width="1" opacity="0.18" /><path d="M0 912 H864" stroke="#09325d" stroke-width="1" opacity="0.18" /><path d="M0 960 H864" stroke="#09325d" stroke-width="1" opacity="0.18" /><path d="M0 1008 H864" stroke="#09325d" stroke-width="1" opacity="0.18" /><path d="M0 1056 H864" stroke="#09325d" stroke-width="1" opacity="0.18" /><path d="M0 1104 H864" stroke="#09325d" stroke-width="1" opacity="0.18" /><path d="M0 1152 H864" stroke="#09325d" stroke-width="1" opacity="0.18" /><path d="M0 1200 H864" stroke="#09325d" stroke-width="1" opacity="0.18" /><path d="M0 1248 H864" stroke="#09325d" stroke-width="1" opacity="0.18" /><path d="M0 1296 H864" stroke="#09325d" stroke-width="1" opacity="0.18" /><path d="M0 1344 H864" stroke="#09325d" stroke-width="1" opacity="0.18" /><path d="M0 1392 H864" stroke="#09325d" stroke-width="1" opacity="0.18" /><path d="M0 1440 H864" stroke="#09325d" stroke-width="1" opacity="0.18" /><path d="M0 1488 H864" stroke="#09325d" stroke-width="1" opacity="0.18" /><path d="M0 1536 H864" stroke="#09325d" stroke-width="1" opacity="0.18" /><path d="M0 1584 H864" stroke="#09325d" stroke-width="1" opacity="0.18" /><path d="M0 1632 H864" stroke="#09325d" stroke-width="1" opacity="0.18" /><path d="M0 1680 H864" stroke="#09325d" stroke-width="1" opacity="0.18" /><path d="M0 1728 H864" stroke="#09325d" stroke-width="1" opacity="0.18" /><path d="M0 1776 H864" stroke="#09325d" stroke-width="1" opacity="0.18" /><path d="M0 1824 H864" stroke="#09325d" stroke-width="1" opacity="0.18" /><rect x="32" y="28" width="800" height="154" fill="#041d39" stroke="#02adf8" stroke-width="3" /><text x="55" y="66" font-family="Poppins, Inter, Arial, sans-serif" font-size="14px" font-weight="700" fill="#02adf8" text-anchor="start">LESSON 0007 · OVERVIEW SHEET</text><text x="55" y="111" font-family="Poppins, Inter, Arial, sans-serif" font-size="31px" font-weight="700" fill="#dfe9f3" text-anchor="start">Depth and geometry filtering</text><text x="55" y="145" font-family="Poppins, Inter, Arial, sans-serif" font-size="12px" font-weight="600" fill="#b8efff" text-anchor="start">YOLO CANDIDATE + REGISTERED DEPTH → OBJECT DECISION</text><rect x="32" y="202" width="800" height="32" fill="#09325d" stroke="#cadaeb" stroke-width="1" /><text x="50" y="224" font-family="Poppins, Inter, Arial, sans-serif" font-size="10px" font-weight="700" fill="#dfe9f3" text-anchor="start">READING ORDER</text><text x="790" y="224" font-family="Poppins, Inter, Arial, sans-serif" font-size="12px" font-weight="700" fill="#b8efff" text-anchor="end">1 → 2 → 3 → … → 12</text><rect x="35" y="256" width="386" height="220" fill="none" stroke="#02adf8" stroke-width="2" opacity="0.28" transform="rotate(-0.3 225.0 362.0)" /><rect x="32" y="252" width="386" height="220" rx="4" fill="#041d39" stroke="#cadaeb" stroke-width="2" /><circle cx="59" cy="280" r="17" fill="#02adf8" stroke="#b8efff" stroke-width="2" /><text x="59" y="286" font-family="Poppins, Inter, Arial, sans-serif" font-size="15px" font-weight="700" fill="#000916" text-anchor="middle">1</text><text x="87" y="284" font-family="Poppins, Inter, Arial, sans-serif" font-size="13px" font-weight="700" fill="#dfe9f3" text-anchor="start">SECOND EVIDENCE</text><rect x="49" y="330" width="53" height="58" fill="#041d39" stroke="#cadaeb" stroke-width="2" rx="2" /><rect x="112" y="330" width="53" height="58" fill="#041d39" stroke="#02adf8" stroke-width="2" rx="2" /><path d="M60 364 L91 364" fill="none" stroke="#09325d" stroke-width="3" stroke-linecap="round" /><path d="M123 364 L154 364" fill="none" stroke="#02adf8" stroke-width="3" stroke-linecap="round" /><text x="198" y="334" font-family="Poppins, Inter, Arial, sans-serif" font-size="12px" font-weight="400" fill="#cadaeb" text-anchor="start">Depth does not find cubes; it checks a</text><text x="198" y="354" font-family="Poppins, Inter, Arial, sans-serif" font-size="12px" font-weight="400" fill="#cadaeb" text-anchor="start">YOLO box against 3D shape evidence.</text><rect x="449" y="256" width="386" height="220" fill="none" stroke="#02adf8" stroke-width="2" opacity="0.28" transform="rotate(0.3 639.0 362.0)" /><rect x="446" y="252" width="386" height="220" rx="4" fill="#041d39" stroke="#cadaeb" stroke-width="2" /><circle cx="473" cy="280" r="17" fill="#02adf8" stroke="#b8efff" stroke-width="2" /><text x="473" y="286" font-family="Poppins, Inter, Arial, sans-serif" font-size="15px" font-weight="700" fill="#000916" text-anchor="middle">2</text><text x="501" y="284" font-family="Poppins, Inter, Arial, sans-serif" font-size="13px" font-weight="700" fill="#dfe9f3" text-anchor="start">SHARED PIXELS</text><rect x="466" y="331" width="104" height="69" fill="#041d39" stroke="#cadaeb" stroke-width="2" rx="2" /><path d="M474 339 L474 392" fill="none" stroke="#09325d" stroke-width="1" stroke-linecap="round" /><path d="M493 339 L493 392" fill="none" stroke="#09325d" stroke-width="1" stroke-linecap="round" /><path d="M512 339 L512 392" fill="none" stroke="#09325d" stroke-width="1" stroke-linecap="round" /><path d="M531 339 L531 392" fill="none" stroke="#09325d" stroke-width="1" stroke-linecap="round" /><path d="M550 339 L550 392" fill="none" stroke="#09325d" stroke-width="1" stroke-linecap="round" /><path d="M474 342 L562 342" fill="none" stroke="#09325d" stroke-width="1" stroke-linecap="round" /><path d="M474 362 L562 362" fill="none" stroke="#09325d" stroke-width="1" stroke-linecap="round" /><path d="M474 382 L562 382" fill="none" stroke="#09325d" stroke-width="1" stroke-linecap="round" /><circle cx="513" cy="363" r="10" fill="#02adf8" stroke="#b8efff" stroke-width="2" /><path d="M529 363 L561 363" fill="none" stroke="#ff7a69" stroke-width="2" stroke-linecap="round" /><path d="M548 353 L561 363" fill="none" stroke="#ff7a69" stroke-width="2" stroke-linecap="round" /><path d="M548 373 L561 363" fill="none" stroke="#ff7a69" stroke-width="2" stroke-linecap="round" /><text x="612" y="334" font-family="Poppins, Inter, Arial, sans-serif" font-size="12px" font-weight="400" fill="#cadaeb" text-anchor="start">The current filter indexes depth with</text><text x="612" y="354" font-family="Poppins, Inter, Arial, sans-serif" font-size="12px" font-weight="400" fill="#cadaeb" text-anchor="start">the RGB box coordinates; registration</text><text x="612" y="374" font-family="Poppins, Inter, Arial, sans-serif" font-size="12px" font-weight="400" fill="#cadaeb" text-anchor="start">is an assumption to verify.</text><rect x="35" y="492" width="386" height="220" fill="none" stroke="#02adf8" stroke-width="2" opacity="0.28" transform="rotate(-0.3 225.0 598.0)" /><rect x="32" y="488" width="386" height="220" rx="4" fill="#041d39" stroke="#cadaeb" stroke-width="2" /><circle cx="59" cy="516" r="17" fill="#02adf8" stroke="#b8efff" stroke-width="2" /><text x="59" y="522" font-family="Poppins, Inter, Arial, sans-serif" font-size="15px" font-weight="700" fill="#000916" text-anchor="middle">3</text><text x="87" y="520" font-family="Poppins, Inter, Arial, sans-serif" font-size="13px" font-weight="700" fill="#dfe9f3" text-anchor="start">MILLIMETRES</text><rect x="52" y="567" width="104" height="69" fill="#041d39" stroke="#cadaeb" stroke-width="2" rx="2" /><path d="M60 575 L60 628" fill="none" stroke="#09325d" stroke-width="1" stroke-linecap="round" /><path d="M79 575 L79 628" fill="none" stroke="#09325d" stroke-width="1" stroke-linecap="round" /><path d="M98 575 L98 628" fill="none" stroke="#09325d" stroke-width="1" stroke-linecap="round" /><path d="M117 575 L117 628" fill="none" stroke="#09325d" stroke-width="1" stroke-linecap="round" /><path d="M136 575 L136 628" fill="none" stroke="#09325d" stroke-width="1" stroke-linecap="round" /><path d="M60 578 L148 578" fill="none" stroke="#09325d" stroke-width="1" stroke-linecap="round" /><path d="M60 598 L148 598" fill="none" stroke="#09325d" stroke-width="1" stroke-linecap="round" /><path d="M60 618 L148 618" fill="none" stroke="#09325d" stroke-width="1" stroke-linecap="round" /><circle cx="99" cy="599" r="10" fill="#02adf8" stroke="#b8efff" stroke-width="2" /><path d="M115 599 L147 599" fill="none" stroke="#ff7a69" stroke-width="2" stroke-linecap="round" /><path d="M134 589 L147 599" fill="none" stroke="#ff7a69" stroke-width="2" stroke-linecap="round" /><path d="M134 609 L147 599" fill="none" stroke="#ff7a69" stroke-width="2" stroke-linecap="round" /><text x="198" y="570" font-family="Poppins, Inter, Arial, sans-serif" font-size="12px" font-weight="400" fill="#cadaeb" text-anchor="start">Depth is uint16 millimetres; zero is</text><text x="198" y="590" font-family="Poppins, Inter, Arial, sans-serif" font-size="12px" font-weight="400" fill="#cadaeb" text-anchor="start">invalid and values at or above 4000 mm</text><text x="198" y="610" font-family="Poppins, Inter, Arial, sans-serif" font-size="12px" font-weight="400" fill="#cadaeb" text-anchor="start">are ignored.</text><rect x="449" y="492" width="386" height="220" fill="none" stroke="#02adf8" stroke-width="2" opacity="0.28" transform="rotate(0.3 639.0 598.0)" /><rect x="446" y="488" width="386" height="220" rx="4" fill="#041d39" stroke="#cadaeb" stroke-width="2" /><circle cx="473" cy="516" r="17" fill="#02adf8" stroke="#b8efff" stroke-width="2" /><text x="473" y="522" font-family="Poppins, Inter, Arial, sans-serif" font-size="15px" font-weight="700" fill="#000916" text-anchor="middle">4</text><text x="501" y="520" font-family="Poppins, Inter, Arial, sans-serif" font-size="13px" font-weight="700" fill="#dfe9f3" text-anchor="start">FLOOR ANNULUS</text><rect x="474" y="567" width="90" height="63" fill="#041d39" stroke="#cadaeb" stroke-width="2" /><rect x="499" y="582" width="40" height="32" fill="none" stroke="#02adf8" stroke-width="2" /><circle cx="519" cy="598" r="31" fill="none" stroke="#f4c95d" stroke-width="2" /><text x="612" y="570" font-family="Poppins, Inter, Arial, sans-serif" font-size="12px" font-weight="400" fill="#cadaeb" text-anchor="start">A 15-pixel outer ring around the box</text><text x="612" y="590" font-family="Poppins, Inter, Arial, sans-serif" font-size="12px" font-weight="400" fill="#cadaeb" text-anchor="start">estimates local floor depth with a</text><text x="612" y="610" font-family="Poppins, Inter, Arial, sans-serif" font-size="12px" font-weight="400" fill="#cadaeb" text-anchor="start">median.</text><rect x="35" y="728" width="386" height="220" fill="none" stroke="#02adf8" stroke-width="2" opacity="0.28" transform="rotate(-0.3 225.0 834.0)" /><rect x="32" y="724" width="386" height="220" rx="4" fill="#041d39" stroke="#cadaeb" stroke-width="2" /><circle cx="59" cy="752" r="17" fill="#02adf8" stroke="#b8efff" stroke-width="2" /><text x="59" y="758" font-family="Poppins, Inter, Arial, sans-serif" font-size="15px" font-weight="700" fill="#000916" text-anchor="middle">5</text><text x="87" y="756" font-family="Poppins, Inter, Arial, sans-serif" font-size="13px" font-weight="700" fill="#dfe9f3" text-anchor="start">RAISED FRACTION</text><path d="M57 860 L154 860" fill="none" stroke="#cadaeb" stroke-width="2" stroke-linecap="round" /><rect x="75" y="823" width="52" height="37" fill="#02adf8" stroke="#b8efff" stroke-width="2" /><path d="M60 814 L150 814" fill="none" stroke="#f4c95d" stroke-width="2" stroke-linecap="round" stroke-dasharray="5 4" /><text x="198" y="806" font-family="Poppins, Inter, Arial, sans-serif" font-size="12px" font-weight="400" fill="#cadaeb" text-anchor="start">Literal code: depth &gt; floor + 30</text><text x="198" y="826" font-family="Poppins, Inter, Arial, sans-serif" font-size="12px" font-weight="400" fill="#cadaeb" text-anchor="start">must be ≥20% of valid box pixels.</text><text x="198" y="846" font-family="Poppins, Inter, Arial, sans-serif" font-size="12px" font-weight="400" fill="#ffb4a8" text-anchor="start">Physical direction needs validation.</text><text x="198" y="866" font-family="Poppins, Inter, Arial, sans-serif" font-size="11px" font-weight="400" fill="#ffb4a8" text-anchor="start">Do not treat it as proven height.</text><rect x="449" y="728" width="386" height="220" fill="none" stroke="#02adf8" stroke-width="2" opacity="0.28" transform="rotate(0.3 639.0 834.0)" /><rect x="446" y="724" width="386" height="220" rx="4" fill="#041d39" stroke="#cadaeb" stroke-width="2" /><circle cx="473" cy="752" r="17" fill="#02adf8" stroke="#b8efff" stroke-width="2" /><text x="473" y="758" font-family="Poppins, Inter, Arial, sans-serif" font-size="15px" font-weight="700" fill="#000916" text-anchor="middle">6</text><text x="501" y="756" font-family="Poppins, Inter, Arial, sans-serif" font-size="13px" font-weight="700" fill="#dfe9f3" text-anchor="start">3D EXTENT</text><text x="612" y="806" font-family="Poppins, Inter, Arial, sans-serif" font-size="12px" font-weight="400" fill="#cadaeb" text-anchor="start">Raised pixels are projected with fx/fy</text><text x="612" y="826" font-family="Poppins, Inter, Arial, sans-serif" font-size="12px" font-weight="400" fill="#cadaeb" text-anchor="start">to estimate width, height, and depth</text><text x="612" y="846" font-family="Poppins, Inter, Arial, sans-serif" font-size="12px" font-weight="400" fill="#cadaeb" text-anchor="start">in millimetres.</text><rect x="35" y="964" width="386" height="220" fill="none" stroke="#02adf8" stroke-width="2" opacity="0.28" transform="rotate(-0.3 225.0 1070.0)" /><rect x="32" y="960" width="386" height="220" rx="4" fill="#041d39" stroke="#cadaeb" stroke-width="2" /><circle cx="59" cy="988" r="17" fill="#02adf8" stroke="#b8efff" stroke-width="2" /><text x="59" y="994" font-family="Poppins, Inter, Arial, sans-serif" font-size="15px" font-weight="700" fill="#000916" text-anchor="middle">7</text><text x="87" y="992" font-family="Poppins, Inter, Arial, sans-serif" font-size="13px" font-weight="700" fill="#dfe9f3" text-anchor="start">ASPECT RATIO</text><rect x="66" y="1044" width="72" height="48" fill="none" stroke="#02adf8" stroke-width="2" /><path d="M72 1106 L132 1106" fill="none" stroke="#cadaeb" stroke-width="2" stroke-linecap="round" /><text x="198" y="1042" font-family="Poppins, Inter, Arial, sans-serif" font-size="12px" font-weight="400" fill="#cadaeb" text-anchor="start">A raised subset with long/short ratio</text><text x="198" y="1062" font-family="Poppins, Inter, Arial, sans-serif" font-size="12px" font-weight="400" fill="#cadaeb" text-anchor="start">above 1.2 is rejected as</text><text x="198" y="1082" font-family="Poppins, Inter, Arial, sans-serif" font-size="12px" font-weight="400" fill="#cadaeb" text-anchor="start">non-cube-like.</text><rect x="449" y="964" width="386" height="220" fill="none" stroke="#02adf8" stroke-width="2" opacity="0.28" transform="rotate(0.3 639.0 1070.0)" /><rect x="446" y="960" width="386" height="220" rx="4" fill="#041d39" stroke="#cadaeb" stroke-width="2" /><circle cx="473" cy="988" r="17" fill="#02adf8" stroke="#b8efff" stroke-width="2" /><text x="473" y="994" font-family="Poppins, Inter, Arial, sans-serif" font-size="15px" font-weight="700" fill="#000916" text-anchor="middle">8</text><text x="501" y="992" font-family="Poppins, Inter, Arial, sans-serif" font-size="13px" font-weight="700" fill="#dfe9f3" text-anchor="start">PLANAR TOP</text><circle cx="484" cy="1079" r="4" fill="#b8efff" stroke="#02adf8" stroke-width="1" /><path d="M481 1079 L557 1079" fill="none" stroke="#cadaeb" stroke-width="1" stroke-linecap="round" stroke-dasharray="4 4" /><circle cx="507" cy="1082" r="4" fill="#b8efff" stroke="#02adf8" stroke-width="1" /><path d="M481 1079 L557 1079" fill="none" stroke="#cadaeb" stroke-width="1" stroke-linecap="round" stroke-dasharray="4 4" /><circle cx="530" cy="1079" r="4" fill="#b8efff" stroke="#02adf8" stroke-width="1" /><path d="M481 1079 L557 1079" fill="none" stroke="#cadaeb" stroke-width="1" stroke-linecap="round" stroke-dasharray="4 4" /><circle cx="553" cy="1082" r="4" fill="#b8efff" stroke="#02adf8" stroke-width="1" /><path d="M481 1079 L557 1079" fill="none" stroke="#cadaeb" stroke-width="1" stroke-linecap="round" stroke-dasharray="4 4" /><text x="612" y="1042" font-family="Poppins, Inter, Arial, sans-serif" font-size="12px" font-weight="400" fill="#cadaeb" text-anchor="start">Raised depth standard deviation above</text><text x="612" y="1062" font-family="Poppins, Inter, Arial, sans-serif" font-size="12px" font-weight="400" fill="#cadaeb" text-anchor="start">30 mm fails the flat-top cube check.</text><rect x="35" y="1200" width="386" height="220" fill="none" stroke="#02adf8" stroke-width="2" opacity="0.28" transform="rotate(-0.3 225.0 1306.0)" /><rect x="32" y="1196" width="386" height="220" rx="4" fill="#041d39" stroke="#cadaeb" stroke-width="2" /><circle cx="59" cy="1224" r="17" fill="#02adf8" stroke="#b8efff" stroke-width="2" /><text x="59" y="1230" font-family="Poppins, Inter, Arial, sans-serif" font-size="15px" font-weight="700" fill="#000916" text-anchor="middle">9</text><text x="87" y="1228" font-family="Poppins, Inter, Arial, sans-serif" font-size="13px" font-weight="700" fill="#dfe9f3" text-anchor="start">DECISION ORDER</text><circle cx="105" cy="1270" r="9" fill="#02adf8" stroke="#b8efff" stroke-width="2" /><path d="M105 1279 L105 1301" fill="none" stroke="#cadaeb" stroke-width="2" stroke-linecap="round" /><path d="M105 1301 L70 1325" fill="none" stroke="#cadaeb" stroke-width="2" stroke-linecap="round" /><path d="M105 1301 L140 1325" fill="none" stroke="#cadaeb" stroke-width="2" stroke-linecap="round" /><circle cx="70" cy="1334" r="9" fill="#ddf7f4" stroke="#0f766e" stroke-width="2" /><circle cx="140" cy="1334" r="9" fill="#ff7a69" stroke="#b42318" stroke-width="2" /><text x="198" y="1278" font-family="Poppins, Inter, Arial, sans-serif" font-size="12px" font-weight="400" fill="#cadaeb" text-anchor="start">Flat, aspect, and non-planar failures</text><text x="198" y="1298" font-family="Poppins, Inter, Arial, sans-serif" font-size="12px" font-weight="400" fill="#cadaeb" text-anchor="start">reject; sparse or missing depth is</text><text x="198" y="1318" font-family="Poppins, Inter, Arial, sans-serif" font-size="12px" font-weight="400" fill="#cadaeb" text-anchor="start">kept with a quality reason.</text><rect x="449" y="1200" width="386" height="220" fill="none" stroke="#02adf8" stroke-width="2" opacity="0.28" transform="rotate(0.3 639.0 1306.0)" /><rect x="446" y="1196" width="386" height="220" rx="4" fill="#041d39" stroke="#cadaeb" stroke-width="2" /><circle cx="473" cy="1224" r="17" fill="#02adf8" stroke="#b8efff" stroke-width="2" /><text x="473" y="1230" font-family="Poppins, Inter, Arial, sans-serif" font-size="15px" font-weight="700" fill="#000916" text-anchor="middle">10</text><text x="501" y="1228" font-family="Poppins, Inter, Arial, sans-serif" font-size="13px" font-weight="700" fill="#dfe9f3" text-anchor="start">M4C EVIDENCE</text><rect x="467" y="1268" width="104" height="82" fill="#041d39" stroke="#cadaeb" stroke-width="2" rx="2" /><path d="M467 1289 L571 1289" fill="none" stroke="#09325d" stroke-width="1" stroke-linecap="round" /><path d="M467 1310 L571 1310" fill="none" stroke="#09325d" stroke-width="1" stroke-linecap="round" /><path d="M467 1331 L571 1331" fill="none" stroke="#09325d" stroke-width="1" stroke-linecap="round" /><path d="M503 1268 L503 1350" fill="none" stroke="#09325d" stroke-width="1" stroke-linecap="round" /><path d="M537 1268 L537 1350" fill="none" stroke="#09325d" stroke-width="1" stroke-linecap="round" /><rect x="474" y="1275" width="22" height="7" fill="#02adf8" stroke="#02adf8" stroke-width="0" /><rect x="510" y="1275" width="20" height="7" fill="#b8efff" stroke="#b8efff" stroke-width="0" /><rect x="543" y="1275" width="20" height="7" fill="#ddf7f4" stroke="#ddf7f4" stroke-width="0" /><text x="612" y="1278" font-family="Poppins, Inter, Arial, sans-serif" font-size="12px" font-weight="400" fill="#cadaeb" text-anchor="start">Named flat distractors were rejected</text><text x="612" y="1298" font-family="Poppins, Inter, Arial, sans-serif" font-size="12px" font-weight="400" fill="#cadaeb" text-anchor="start">30/30; the green raised bag was</text><text x="612" y="1318" font-family="Poppins, Inter, Arial, sans-serif" font-size="12px" font-weight="400" fill="#cadaeb" text-anchor="start">rejected 64/64.</text><rect x="35" y="1436" width="386" height="220" fill="none" stroke="#02adf8" stroke-width="2" opacity="0.28" transform="rotate(-0.3 225.0 1542.0)" /><rect x="32" y="1432" width="386" height="220" rx="4" fill="#041d39" stroke="#cadaeb" stroke-width="2" /><circle cx="59" cy="1460" r="17" fill="#02adf8" stroke="#b8efff" stroke-width="2" /><text x="59" y="1466" font-family="Poppins, Inter, Arial, sans-serif" font-size="15px" font-weight="700" fill="#000916" text-anchor="middle">11</text><text x="87" y="1464" font-family="Poppins, Inter, Arial, sans-serif" font-size="13px" font-weight="700" fill="#dfe9f3" text-anchor="start">TIGHT BBOX LIMIT</text><text x="63" y="1564" font-family="Poppins, Inter, Arial, sans-serif" font-size="30px" font-weight="700" fill="#ff7a69" text-anchor="middle">!</text><text x="198" y="1514" font-family="Poppins, Inter, Arial, sans-serif" font-size="12px" font-weight="400" fill="#cadaeb" text-anchor="start">A red cube top-face box was too tight,</text><text x="198" y="1534" font-family="Poppins, Inter, Arial, sans-serif" font-size="12px" font-weight="400" fill="#cadaeb" text-anchor="start">so geometry could not infer the cube</text><text x="198" y="1554" font-family="Poppins, Inter, Arial, sans-serif" font-size="12px" font-weight="400" fill="#cadaeb" text-anchor="start">body.</text><rect x="449" y="1436" width="386" height="220" fill="none" stroke="#02adf8" stroke-width="2" opacity="0.28" transform="rotate(0.3 639.0 1542.0)" /><rect x="446" y="1432" width="386" height="220" rx="4" fill="#041d39" stroke="#cadaeb" stroke-width="2" /><circle cx="473" cy="1460" r="17" fill="#02adf8" stroke="#b8efff" stroke-width="2" /><text x="473" y="1466" font-family="Poppins, Inter, Arial, sans-serif" font-size="15px" font-weight="700" fill="#000916" text-anchor="middle">12</text><text x="501" y="1464" font-family="Poppins, Inter, Arial, sans-serif" font-size="13px" font-weight="700" fill="#dfe9f3" text-anchor="start">M5 CONSEQUENCE</text><text x="612" y="1514" font-family="Poppins, Inter, Arial, sans-serif" font-size="12px" font-weight="400" fill="#cadaeb" text-anchor="start">The live filter rejects floor</text><text x="612" y="1534" font-family="Poppins, Inter, Arial, sans-serif" font-size="12px" font-weight="400" fill="#cadaeb" text-anchor="start">candidates correctly, but it cannot</text><text x="612" y="1554" font-family="Poppins, Inter, Arial, sans-serif" font-size="12px" font-weight="400" fill="#cadaeb" text-anchor="start">create a missing YOLO candidate.</text><rect x="32" y="1693" width="800" height="90" fill="#041d39" stroke="#02adf8" stroke-width="2" /><text x="52" y="1721" font-family="Poppins, Inter, Arial, sans-serif" font-size="11px" font-weight="700" fill="#02adf8" text-anchor="start">PROJECT ANCHOR</text><text x="52" y="1747" font-family="Poppins, Inter, Arial, sans-serif" font-size="12px" font-weight="500" fill="#dfe9f3" text-anchor="start">Anchors: geometry_filter.py:_compute_geometry/decide · M4c1 report ·</text><text x="52" y="1765" font-family="Poppins, Inter, Arial, sans-serif" font-size="12px" font-weight="500" fill="#dfe9f3" text-anchor="start">config/params.yaml</text><text x="832" y="1775" font-family="Poppins, Inter, Arial, sans-serif" font-size="10px" font-weight="500" fill="#9bb1c7" text-anchor="end">EXPLANATORY MAP · NOT A MEASUREMENT</text></svg>