<svg xmlns="http://www.w3.org/2000/svg" width="864" height="1850" viewBox="0 0 864 1850" role="img" aria-labelledby="title-0006 desc-0006"><title id="title-0006">Lesson 0006 overview: ROS 2 perception wiring</title><desc id="desc-0006">A 12-station hand-drawn technical overview sheet. Stations read from 1 to 12, left to right and top to bottom.</desc><rect x="0" y="0" width="864" height="1850" fill="#000916" /><path d="M0 0 V1850" stroke="#09325d" stroke-width="1" opacity="0.18" /><path d="M48 0 V1850" stroke="#09325d" stroke-width="1" opacity="0.18" /><path d="M96 0 V1850" stroke="#09325d" stroke-width="1" opacity="0.18" /><path d="M144 0 V1850" stroke="#09325d" stroke-width="1" opacity="0.18" /><path d="M192 0 V1850" stroke="#09325d" stroke-width="1" opacity="0.18" /><path d="M240 0 V1850" stroke="#09325d" stroke-width="1" opacity="0.18" /><path d="M288 0 V1850" stroke="#09325d" stroke-width="1" opacity="0.18" /><path d="M336 0 V1850" stroke="#09325d" stroke-width="1" opacity="0.18" /><path d="M384 0 V1850" stroke="#09325d" stroke-width="1" opacity="0.18" /><path d="M432 0 V1850" stroke="#09325d" stroke-width="1" opacity="0.18" /><path d="M480 0 V1850" stroke="#09325d" stroke-width="1" opacity="0.18" /><path d="M528 0 V1850" stroke="#09325d" stroke-width="1" opacity="0.18" /><path d="M576 0 V1850" stroke="#09325d" stroke-width="1" opacity="0.18" /><path d="M624 0 V1850" stroke="#09325d" stroke-width="1" opacity="0.18" /><path d="M672 0 V1850" stroke="#09325d" stroke-width="1" opacity="0.18" /><path d="M720 0 V1850" stroke="#09325d" stroke-width="1" opacity="0.18" /><path d="M768 0 V1850" stroke="#09325d" stroke-width="1" opacity="0.18" /><path d="M816 0 V1850" stroke="#09325d" stroke-width="1" opacity="0.18" /><path d="M864 0 V1850" stroke="#09325d" stroke-width="1" opacity="0.18" /><path d="M0 0 H864" stroke="#09325d" stroke-width="1" opacity="0.18" /><path d="M0 48 H864" stroke="#09325d" stroke-width="1" opacity="0.18" /><path d="M0 96 H864" stroke="#09325d" stroke-width="1" opacity="0.18" /><path d="M0 144 H864" stroke="#09325d" stroke-width="1" opacity="0.18" /><path d="M0 192 H864" stroke="#09325d" stroke-width="1" opacity="0.18" /><path d="M0 240 H864" stroke="#09325d" stroke-width="1" opacity="0.18" /><path d="M0 288 H864" stroke="#09325d" stroke-width="1" opacity="0.18" /><path d="M0 336 H864" stroke="#09325d" stroke-width="1" opacity="0.18" /><path d="M0 384 H864" stroke="#09325d" stroke-width="1" opacity="0.18" /><path d="M0 432 H864" stroke="#09325d" stroke-width="1" opacity="0.18" /><path d="M0 480 H864" stroke="#09325d" stroke-width="1" opacity="0.18" /><path d="M0 528 H864" stroke="#09325d" stroke-width="1" opacity="0.18" /><path d="M0 576 H864" stroke="#09325d" stroke-width="1" opacity="0.18" /><path d="M0 624 H864" stroke="#09325d" stroke-width="1" opacity="0.18" /><path d="M0 672 H864" stroke="#09325d" stroke-width="1" opacity="0.18" /><path d="M0 720 H864" stroke="#09325d" stroke-width="1" opacity="0.18" /><path d="M0 768 H864" stroke="#09325d" stroke-width="1" opacity="0.18" /><path d="M0 816 H864" stroke="#09325d" stroke-width="1" opacity="0.18" /><path d="M0 864 H864" stroke="#09325d" stroke-width="1" opacity="0.18" /><path d="M0 912 H864" stroke="#09325d" stroke-width="1" opacity="0.18" /><path d="M0 960 H864" stroke="#09325d" stroke-width="1" opacity="0.18" /><path d="M0 1008 H864" stroke="#09325d" stroke-width="1" opacity="0.18" /><path d="M0 1056 H864" stroke="#09325d" stroke-width="1" opacity="0.18" /><path d="M0 1104 H864" stroke="#09325d" stroke-width="1" opacity="0.18" /><path d="M0 1152 H864" stroke="#09325d" stroke-width="1" opacity="0.18" /><path d="M0 1200 H864" stroke="#09325d" stroke-width="1" opacity="0.18" /><path d="M0 1248 H864" stroke="#09325d" stroke-width="1" opacity="0.18" /><path d="M0 1296 H864" stroke="#09325d" stroke-width="1" opacity="0.18" /><path d="M0 1344 H864" stroke="#09325d" stroke-width="1" opacity="0.18" /><path d="M0 1392 H864" stroke="#09325d" stroke-width="1" opacity="0.18" /><path d="M0 1440 H864" stroke="#09325d" stroke-width="1" opacity="0.18" /><path d="M0 1488 H864" stroke="#09325d" stroke-width="1" opacity="0.18" /><path d="M0 1536 H864" stroke="#09325d" stroke-width="1" opacity="0.18" /><path d="M0 1584 H864" stroke="#09325d" stroke-width="1" opacity="0.18" /><path d="M0 1632 H864" stroke="#09325d" stroke-width="1" opacity="0.18" /><path d="M0 1680 H864" stroke="#09325d" stroke-width="1" opacity="0.18" /><path d="M0 1728 H864" stroke="#09325d" stroke-width="1" opacity="0.18" /><path d="M0 1776 H864" stroke="#09325d" stroke-width="1" opacity="0.18" /><path d="M0 1824 H864" stroke="#09325d" stroke-width="1" opacity="0.18" /><rect x="32" y="28" width="800" height="154" fill="#041d39" stroke="#02adf8" stroke-width="3" /><text x="55" y="66" font-family="Poppins, Inter, Arial, sans-serif" font-size="14px" font-weight="700" fill="#02adf8" text-anchor="start">LESSON 0006 · OVERVIEW SHEET</text><text x="55" y="111" font-family="Poppins, Inter, Arial, sans-serif" font-size="31px" font-weight="700" fill="#dfe9f3" text-anchor="start">ROS 2 perception wiring</text><text x="55" y="145" font-family="Poppins, Inter, Arial, sans-serif" font-size="12px" font-weight="600" fill="#b8efff" text-anchor="start">TOPICS → SYNC → CALLBACK → MESSAGE CONTRACTS</text><rect x="32" y="202" width="800" height="32" fill="#09325d" stroke="#cadaeb" stroke-width="1" /><text x="50" y="224" font-family="Poppins, Inter, Arial, sans-serif" font-size="10px" font-weight="700" fill="#dfe9f3" text-anchor="start">READING ORDER</text><text x="790" y="224" font-family="Poppins, Inter, Arial, sans-serif" font-size="12px" font-weight="700" fill="#b8efff" text-anchor="end">1 → 2 → 3 → … → 12</text><rect x="35" y="256" width="386" height="220" fill="none" stroke="#02adf8" stroke-width="2" opacity="0.28" transform="rotate(-0.3 225.0 362.0)" /><rect x="32" y="252" width="386" height="220" rx="4" fill="#041d39" stroke="#cadaeb" stroke-width="2" /><circle cx="59" cy="280" r="17" fill="#02adf8" stroke="#b8efff" stroke-width="2" /><text x="59" y="286" font-family="Poppins, Inter, Arial, sans-serif" font-size="15px" font-weight="700" fill="#000916" text-anchor="middle">1</text><text x="87" y="284" font-family="Poppins, Inter, Arial, sans-serif" font-size="13px" font-weight="700" fill="#dfe9f3" text-anchor="start">ROS GRAPH</text><circle cx="68" cy="361" r="13" fill="#041d39" stroke="#02adf8" stroke-width="2" /><circle cx="140" cy="334" r="13" fill="#041d39" stroke="#cadaeb" stroke-width="2" /><circle cx="140" cy="389" r="13" fill="#041d39" stroke="#cadaeb" stroke-width="2" /><path d="M80 356 L126 339" fill="none" stroke="#02adf8" stroke-width="2" stroke-linecap="round" /><path d="M80 366 L126 384" fill="none" stroke="#02adf8" stroke-width="2" stroke-linecap="round" /><text x="198" y="334" font-family="Poppins, Inter, Arial, sans-serif" font-size="12px" font-weight="400" fill="#cadaeb" text-anchor="start">Nodes exchange typed messages through</text><text x="198" y="354" font-family="Poppins, Inter, Arial, sans-serif" font-size="12px" font-weight="400" fill="#cadaeb" text-anchor="start">named topics; the detector is one</text><text x="198" y="374" font-family="Poppins, Inter, Arial, sans-serif" font-size="12px" font-weight="400" fill="#cadaeb" text-anchor="start">computation unit.</text><rect x="449" y="256" width="386" height="220" fill="none" stroke="#02adf8" stroke-width="2" opacity="0.28" transform="rotate(0.3 639.0 362.0)" /><rect x="446" y="252" width="386" height="220" rx="4" fill="#041d39" stroke="#cadaeb" stroke-width="2" /><circle cx="473" cy="280" r="17" fill="#02adf8" stroke="#b8efff" stroke-width="2" /><text x="473" y="286" font-family="Poppins, Inter, Arial, sans-serif" font-size="15px" font-weight="700" fill="#000916" text-anchor="middle">2</text><text x="501" y="284" font-family="Poppins, Inter, Arial, sans-serif" font-size="13px" font-weight="700" fill="#dfe9f3" text-anchor="start">RGB INPUT</text><rect x="466" y="331" width="104" height="69" fill="#041d39" stroke="#cadaeb" stroke-width="2" rx="2" /><path d="M474 339 L474 392" fill="none" stroke="#09325d" stroke-width="1" stroke-linecap="round" /><path d="M493 339 L493 392" fill="none" stroke="#09325d" stroke-width="1" stroke-linecap="round" /><path d="M512 339 L512 392" fill="none" stroke="#09325d" stroke-width="1" stroke-linecap="round" /><path d="M531 339 L531 392" fill="none" stroke="#09325d" stroke-width="1" stroke-linecap="round" /><path d="M550 339 L550 392" fill="none" stroke="#09325d" stroke-width="1" stroke-linecap="round" /><path d="M474 342 L562 342" fill="none" stroke="#09325d" stroke-width="1" stroke-linecap="round" /><path d="M474 362 L562 362" fill="none" stroke="#09325d" stroke-width="1" stroke-linecap="round" /><path d="M474 382 L562 382" fill="none" stroke="#09325d" stroke-width="1" stroke-linecap="round" /><circle cx="513" cy="363" r="10" fill="#02adf8" stroke="#b8efff" stroke-width="2" /><path d="M529 363 L561 363" fill="none" stroke="#ff7a69" stroke-width="2" stroke-linecap="round" /><path d="M548 353 L561 363" fill="none" stroke="#ff7a69" stroke-width="2" stroke-linecap="round" /><path d="M548 373 L561 363" fill="none" stroke="#ff7a69" stroke-width="2" stroke-linecap="round" /><text x="612" y="334" font-family="Poppins, Inter, Arial, sans-serif" font-size="12px" font-weight="400" fill="#cadaeb" text-anchor="start">The vendor camera publishes</text><text x="612" y="354" font-family="Poppins, Inter, Arial, sans-serif" font-size="12px" font-weight="400" fill="#cadaeb" text-anchor="start">/depth_cam/rgb/image_raw as</text><text x="612" y="374" font-family="Poppins, Inter, Arial, sans-serif" font-size="12px" font-weight="400" fill="#cadaeb" text-anchor="start">sensor_msgs/Image.</text><rect x="35" y="492" width="386" height="220" fill="none" stroke="#02adf8" stroke-width="2" opacity="0.28" transform="rotate(-0.3 225.0 598.0)" /><rect x="32" y="488" width="386" height="220" rx="4" fill="#041d39" stroke="#cadaeb" stroke-width="2" /><circle cx="59" cy="516" r="17" fill="#02adf8" stroke="#b8efff" stroke-width="2" /><text x="59" y="522" font-family="Poppins, Inter, Arial, sans-serif" font-size="15px" font-weight="700" fill="#000916" text-anchor="middle">3</text><text x="87" y="520" font-family="Poppins, Inter, Arial, sans-serif" font-size="13px" font-weight="700" fill="#dfe9f3" text-anchor="start">DEPTH + INFO</text><rect x="52" y="567" width="104" height="69" fill="#041d39" stroke="#cadaeb" stroke-width="2" rx="2" /><path d="M60 575 L60 628" fill="none" stroke="#09325d" stroke-width="1" stroke-linecap="round" /><path d="M79 575 L79 628" fill="none" stroke="#09325d" stroke-width="1" stroke-linecap="round" /><path d="M98 575 L98 628" fill="none" stroke="#09325d" stroke-width="1" stroke-linecap="round" /><path d="M117 575 L117 628" fill="none" stroke="#09325d" stroke-width="1" stroke-linecap="round" /><path d="M136 575 L136 628" fill="none" stroke="#09325d" stroke-width="1" stroke-linecap="round" /><path d="M60 578 L148 578" fill="none" stroke="#09325d" stroke-width="1" stroke-linecap="round" /><path d="M60 598 L148 598" fill="none" stroke="#09325d" stroke-width="1" stroke-linecap="round" /><path d="M60 618 L148 618" fill="none" stroke="#09325d" stroke-width="1" stroke-linecap="round" /><circle cx="99" cy="599" r="10" fill="#02adf8" stroke="#b8efff" stroke-width="2" /><path d="M115 599 L147 599" fill="none" stroke="#ff7a69" stroke-width="2" stroke-linecap="round" /><path d="M134 589 L147 599" fill="none" stroke="#ff7a69" stroke-width="2" stroke-linecap="round" /><path d="M134 609 L147 599" fill="none" stroke="#ff7a69" stroke-width="2" stroke-linecap="round" /><text x="198" y="570" font-family="Poppins, Inter, Arial, sans-serif" font-size="12px" font-weight="400" fill="#cadaeb" text-anchor="start">The node also consumes</text><text x="198" y="590" font-family="Poppins, Inter, Arial, sans-serif" font-size="12px" font-weight="400" fill="#cadaeb" text-anchor="start">/depth_cam/depth/image_raw and camera</text><text x="198" y="610" font-family="Poppins, Inter, Arial, sans-serif" font-size="12px" font-weight="400" fill="#cadaeb" text-anchor="start">intrinsics.</text><rect x="449" y="492" width="386" height="220" fill="none" stroke="#02adf8" stroke-width="2" opacity="0.28" transform="rotate(0.3 639.0 598.0)" /><rect x="446" y="488" width="386" height="220" rx="4" fill="#041d39" stroke="#cadaeb" stroke-width="2" /><circle cx="473" cy="516" r="17" fill="#02adf8" stroke="#b8efff" stroke-width="2" /><text x="473" y="522" font-family="Poppins, Inter, Arial, sans-serif" font-size="15px" font-weight="700" fill="#000916" text-anchor="middle">4</text><text x="501" y="520" font-family="Poppins, Inter, Arial, sans-serif" font-size="13px" font-weight="700" fill="#dfe9f3" text-anchor="start">APPROXIMATE SYNC</text><circle cx="482" cy="597" r="13" fill="#041d39" stroke="#02adf8" stroke-width="2" /><circle cx="554" cy="570" r="13" fill="#041d39" stroke="#cadaeb" stroke-width="2" /><circle cx="554" cy="625" r="13" fill="#041d39" stroke="#cadaeb" stroke-width="2" /><path d="M494 592 L540 575" fill="none" stroke="#02adf8" stroke-width="2" stroke-linecap="round" /><path d="M494 602 L540 620" fill="none" stroke="#02adf8" stroke-width="2" stroke-linecap="round" /><text x="612" y="570" font-family="Poppins, Inter, Arial, sans-serif" font-size="12px" font-weight="400" fill="#cadaeb" text-anchor="start">Two image messages are paired with</text><text x="612" y="590" font-family="Poppins, Inter, Arial, sans-serif" font-size="12px" font-weight="400" fill="#cadaeb" text-anchor="start">queue 10 and a configured 0.05 s slop.</text><rect x="35" y="728" width="386" height="220" fill="none" stroke="#02adf8" stroke-width="2" opacity="0.28" transform="rotate(-0.3 225.0 834.0)" /><rect x="32" y="724" width="386" height="220" rx="4" fill="#041d39" stroke="#cadaeb" stroke-width="2" /><circle cx="59" cy="752" r="17" fill="#02adf8" stroke="#b8efff" stroke-width="2" /><text x="59" y="758" font-family="Poppins, Inter, Arial, sans-serif" font-size="15px" font-weight="700" fill="#000916" text-anchor="middle">5</text><text x="87" y="756" font-family="Poppins, Inter, Arial, sans-serif" font-size="13px" font-weight="700" fill="#dfe9f3" text-anchor="start">CV_BRIDGE</text><rect x="50" y="813" width="31" height="31" fill="#041d39" stroke="#cadaeb" stroke-width="2" rx="2" /><rect x="131" y="813" width="31" height="31" fill="#041d39" stroke="#02adf8" stroke-width="2" rx="2" /><path d="M85 828 L126 828" fill="none" stroke="#02adf8" stroke-width="3" stroke-linecap="round" /><path d="M118 822 L126 828" fill="none" stroke="#02adf8" stroke-width="3" stroke-linecap="round" /><path d="M118 834 L126 828" fill="none" stroke="#02adf8" stroke-width="3" stroke-linecap="round" /><text x="198" y="806" font-family="Poppins, Inter, Arial, sans-serif" font-size="12px" font-weight="400" fill="#cadaeb" text-anchor="start">RGB becomes bgr8 for OpenCV; depth</text><text x="198" y="826" font-family="Poppins, Inter, Arial, sans-serif" font-size="12px" font-weight="400" fill="#cadaeb" text-anchor="start">uses passthrough so its numeric format</text><text x="198" y="846" font-family="Poppins, Inter, Arial, sans-serif" font-size="12px" font-weight="400" fill="#cadaeb" text-anchor="start">is preserved.</text><rect x="449" y="728" width="386" height="220" fill="none" stroke="#02adf8" stroke-width="2" opacity="0.28" transform="rotate(0.3 639.0 834.0)" /><rect x="446" y="724" width="386" height="220" rx="4" fill="#041d39" stroke="#cadaeb" stroke-width="2" /><circle cx="473" cy="752" r="17" fill="#02adf8" stroke="#b8efff" stroke-width="2" /><text x="473" y="758" font-family="Poppins, Inter, Arial, sans-serif" font-size="15px" font-weight="700" fill="#000916" text-anchor="middle">6</text><text x="501" y="756" font-family="Poppins, Inter, Arial, sans-serif" font-size="13px" font-weight="700" fill="#dfe9f3" text-anchor="start">FRAME GUARD</text><rect x="466" y="800" width="104" height="70" fill="#041d39" stroke="#cadaeb" stroke-width="2" rx="2" /><text x="612" y="806" font-family="Poppins, Inter, Arial, sans-serif" font-size="12px" font-weight="400" fill="#cadaeb" text-anchor="start">Non-uint16 or non-2D depth is skipped</text><text x="612" y="826" font-family="Poppins, Inter, Arial, sans-serif" font-size="12px" font-weight="400" fill="#cadaeb" text-anchor="start">before inference and publishing.</text><rect x="35" y="964" width="386" height="220" fill="none" stroke="#02adf8" stroke-width="2" opacity="0.28" transform="rotate(-0.3 225.0 1070.0)" /><rect x="32" y="960" width="386" height="220" rx="4" fill="#041d39" stroke="#cadaeb" stroke-width="2" /><circle cx="59" cy="988" r="17" fill="#02adf8" stroke="#b8efff" stroke-width="2" /><text x="59" y="994" font-family="Poppins, Inter, Arial, sans-serif" font-size="15px" font-weight="700" fill="#000916" text-anchor="middle">7</text><text x="87" y="992" font-family="Poppins, Inter, Arial, sans-serif" font-size="13px" font-weight="700" fill="#dfe9f3" text-anchor="start">PARAMETERS</text><path d="M58 1044 L154 1044" fill="none" stroke="#cadaeb" stroke-width="2" stroke-linecap="round" /><circle cx="123" cy="1044" r="6" fill="#02adf8" stroke="#b8efff" stroke-width="2" /><path d="M58 1069 L154 1069" fill="none" stroke="#cadaeb" stroke-width="2" stroke-linecap="round" /><circle cx="87" cy="1069" r="6" fill="#02adf8" stroke="#b8efff" stroke-width="2" /><path d="M58 1094 L154 1094" fill="none" stroke="#cadaeb" stroke-width="2" stroke-linecap="round" /><circle cx="105" cy="1094" r="6" fill="#02adf8" stroke="#b8efff" stroke-width="2" /><text x="198" y="1042" font-family="Poppins, Inter, Arial, sans-serif" font-size="12px" font-weight="400" fill="#cadaeb" text-anchor="start">Topics, thresholds, model path, filter</text><text x="198" y="1062" font-family="Poppins, Inter, Arial, sans-serif" font-size="12px" font-weight="400" fill="#cadaeb" text-anchor="start">settings, and diagnostics are declared</text><text x="198" y="1082" font-family="Poppins, Inter, Arial, sans-serif" font-size="12px" font-weight="400" fill="#cadaeb" text-anchor="start">at runtime.</text><rect x="449" y="964" width="386" height="220" fill="none" stroke="#02adf8" stroke-width="2" opacity="0.28" transform="rotate(0.3 639.0 1070.0)" /><rect x="446" y="960" width="386" height="220" rx="4" fill="#041d39" stroke="#cadaeb" stroke-width="2" /><circle cx="473" cy="988" r="17" fill="#02adf8" stroke="#b8efff" stroke-width="2" /><text x="473" y="994" font-family="Poppins, Inter, Arial, sans-serif" font-size="15px" font-weight="700" fill="#000916" text-anchor="middle">8</text><text x="501" y="992" font-family="Poppins, Inter, Arial, sans-serif" font-size="13px" font-weight="700" fill="#dfe9f3" text-anchor="start">STANDARD OUTPUT</text><rect x="467" y="1029" width="100" height="78" fill="#041d39" stroke="#cadaeb" stroke-width="2" rx="2" /><rect x="490" y="1044" width="49" height="36" fill="none" stroke="#02adf8" stroke-width="2" stroke-dasharray="5 3" /><circle cx="515" cy="1067" r="6" fill="#ddf7f4" stroke="#0f766e" stroke-width="2" /><text x="612" y="1042" font-family="Poppins, Inter, Arial, sans-serif" font-size="12px" font-weight="400" fill="#cadaeb" text-anchor="start">Detection2DArray carries a header,</text><text x="612" y="1062" font-family="Poppins, Inter, Arial, sans-serif" font-size="12px" font-weight="400" fill="#cadaeb" text-anchor="start">class_id, score, and bbox center/size.</text><rect x="35" y="1200" width="386" height="220" fill="none" stroke="#02adf8" stroke-width="2" opacity="0.28" transform="rotate(-0.3 225.0 1306.0)" /><rect x="32" y="1196" width="386" height="220" rx="4" fill="#041d39" stroke="#cadaeb" stroke-width="2" /><circle cx="59" cy="1224" r="17" fill="#02adf8" stroke="#b8efff" stroke-width="2" /><text x="59" y="1230" font-family="Poppins, Inter, Arial, sans-serif" font-size="15px" font-weight="700" fill="#000916" text-anchor="middle">9</text><text x="87" y="1228" font-family="Poppins, Inter, Arial, sans-serif" font-size="13px" font-weight="700" fill="#dfe9f3" text-anchor="start">VENDOR OUTPUT</text><rect x="54" y="1277" width="100" height="58" fill="#041d39" stroke="#cadaeb" stroke-width="2" rx="2" /><rect x="67" y="1292" width="23" height="22" fill="none" stroke="#02adf8" stroke-width="2" /><rect x="100" y="1292" width="39" height="8" fill="#b8efff" stroke="#02adf8" stroke-width="1" /><rect x="100" y="1306" width="29" height="8" fill="#ddf7f4" stroke="#0f766e" stroke-width="1" /><text x="198" y="1278" font-family="Poppins, Inter, Arial, sans-serif" font-size="12px" font-weight="400" fill="#cadaeb" text-anchor="start">ObjectsInfo mirrors the HiWonder-style</text><text x="198" y="1298" font-family="Poppins, Inter, Arial, sans-serif" font-size="12px" font-weight="400" fill="#cadaeb" text-anchor="start">contract with class_name, box, score,</text><text x="198" y="1318" font-family="Poppins, Inter, Arial, sans-serif" font-size="12px" font-weight="400" fill="#cadaeb" text-anchor="start">width, height.</text><rect x="449" y="1200" width="386" height="220" fill="none" stroke="#02adf8" stroke-width="2" opacity="0.28" transform="rotate(0.3 639.0 1306.0)" /><rect x="446" y="1196" width="386" height="220" rx="4" fill="#041d39" stroke="#cadaeb" stroke-width="2" /><circle cx="473" cy="1224" r="17" fill="#02adf8" stroke="#b8efff" stroke-width="2" /><text x="473" y="1230" font-family="Poppins, Inter, Arial, sans-serif" font-size="15px" font-weight="700" fill="#000916" text-anchor="middle">10</text><text x="501" y="1228" font-family="Poppins, Inter, Arial, sans-serif" font-size="13px" font-weight="700" fill="#dfe9f3" text-anchor="start">DEBUG IMAGE</text><rect x="467" y="1265" width="100" height="78" fill="#041d39" stroke="#cadaeb" stroke-width="2" rx="2" /><rect x="490" y="1280" width="49" height="36" fill="none" stroke="#02adf8" stroke-width="2" stroke-dasharray="5 3" /><circle cx="515" cy="1303" r="6" fill="#ddf7f4" stroke="#0f766e" stroke-width="2" /><text x="612" y="1278" font-family="Poppins, Inter, Arial, sans-serif" font-size="12px" font-weight="400" fill="#cadaeb" text-anchor="start">The node returns an annotated</text><text x="612" y="1298" font-family="Poppins, Inter, Arial, sans-serif" font-size="12px" font-weight="400" fill="#cadaeb" text-anchor="start">sensor_msgs/Image with an M5 HUD when</text><text x="612" y="1318" font-family="Poppins, Inter, Arial, sans-serif" font-size="12px" font-weight="400" fill="#cadaeb" text-anchor="start">enabled.</text><rect x="35" y="1436" width="386" height="220" fill="none" stroke="#02adf8" stroke-width="2" opacity="0.28" transform="rotate(-0.3 225.0 1542.0)" /><rect x="32" y="1432" width="386" height="220" rx="4" fill="#041d39" stroke="#cadaeb" stroke-width="2" /><circle cx="59" cy="1460" r="17" fill="#02adf8" stroke="#b8efff" stroke-width="2" /><text x="59" y="1466" font-family="Poppins, Inter, Arial, sans-serif" font-size="15px" font-weight="700" fill="#000916" text-anchor="middle">11</text><text x="87" y="1464" font-family="Poppins, Inter, Arial, sans-serif" font-size="13px" font-weight="700" fill="#dfe9f3" text-anchor="start">LAUNCH PACKAGE</text><rect x="67" y="1500" width="68" height="86" fill="#041d39" stroke="#cadaeb" stroke-width="2" rx="2" /><path d="M117 1500 L135 1518" fill="none" stroke="#cadaeb" stroke-width="2" stroke-linecap="round" /><path d="M117 1500 L117 1518" fill="none" stroke="#cadaeb" stroke-width="2" stroke-linecap="round" /><path d="M80 1564 L122 1564" fill="none" stroke="#09325d" stroke-width="2" stroke-linecap="round" /><path d="M80 1574 L112 1574" fill="none" stroke="#09325d" stroke-width="2" stroke-linecap="round" /><text x="198" y="1514" font-family="Poppins, Inter, Arial, sans-serif" font-size="12px" font-weight="400" fill="#cadaeb" text-anchor="start">ament_python installs the node,</text><text x="198" y="1534" font-family="Poppins, Inter, Arial, sans-serif" font-size="12px" font-weight="400" fill="#cadaeb" text-anchor="start">config, and launch file; vendor</text><text x="198" y="1554" font-family="Poppins, Inter, Arial, sans-serif" font-size="12px" font-weight="400" fill="#cadaeb" text-anchor="start">packages remain reference-only.</text><rect x="449" y="1436" width="386" height="220" fill="none" stroke="#02adf8" stroke-width="2" opacity="0.28" transform="rotate(0.3 639.0 1542.0)" /><rect x="446" y="1432" width="386" height="220" rx="4" fill="#041d39" stroke="#cadaeb" stroke-width="2" /><circle cx="473" cy="1460" r="17" fill="#02adf8" stroke="#b8efff" stroke-width="2" /><text x="473" y="1466" font-family="Poppins, Inter, Arial, sans-serif" font-size="15px" font-weight="700" fill="#000916" text-anchor="middle">12</text><text x="501" y="1464" font-family="Poppins, Inter, Arial, sans-serif" font-size="13px" font-weight="700" fill="#dfe9f3" text-anchor="start">READ-ONLY PROOF</text><rect x="466" y="1506" width="105" height="80" fill="#041d39" stroke="#cadaeb" stroke-width="2" rx="2" /><path d="M489 1526 L552 1526" fill="none" stroke="#b8efff" stroke-width="2" stroke-linecap="round" /><path d="M474 1546 L540 1546" fill="none" stroke="#09325d" stroke-width="2" stroke-linecap="round" /><path d="M474 1562 L526 1562" fill="none" stroke="#09325d" stroke-width="2" stroke-linecap="round" /><text x="612" y="1514" font-family="Poppins, Inter, Arial, sans-serif" font-size="12px" font-weight="400" fill="#cadaeb" text-anchor="start">ros2 topic info, echo, and hz reveal</text><text x="612" y="1534" font-family="Poppins, Inter, Arial, sans-serif" font-size="12px" font-weight="400" fill="#cadaeb" text-anchor="start">whether the graph and message</text><text x="612" y="1554" font-family="Poppins, Inter, Arial, sans-serif" font-size="12px" font-weight="400" fill="#cadaeb" text-anchor="start">contracts agree.</text><rect x="32" y="1693" width="800" height="90" fill="#041d39" stroke="#02adf8" stroke-width="2" /><text x="52" y="1721" font-family="Poppins, Inter, Arial, sans-serif" font-size="11px" font-weight="700" fill="#02adf8" text-anchor="start">PROJECT ANCHOR</text><text x="52" y="1747" font-family="Poppins, Inter, Arial, sans-serif" font-size="12px" font-weight="500" fill="#dfe9f3" text-anchor="start">Anchors: cube_detection_node.py · package.xml · config/params.yaml ·</text><text x="52" y="1765" font-family="Poppins, Inter, Arial, sans-serif" font-size="12px" font-weight="500" fill="#dfe9f3" text-anchor="start">launch/detection.launch.py</text><text x="832" y="1775" font-family="Poppins, Inter, Arial, sans-serif" font-size="10px" font-weight="500" fill="#9bb1c7" text-anchor="end">EXPLANATORY MAP · NOT A MEASUREMENT</text></svg>